{
	"asset":{
		"generator":"Khronos glTF Blender I/O v4.2.60",
		"version":"2.0"
	},
	"scene":0,
	"scenes":[
		{
			"name":"Scene",
			"nodes":[
				0
			]
		}
	],
	"nodes":[
		{
			"mesh":0,
			"name":"Signpost03"
		}
	],
	"meshes":[
		{
			"name":"Signpost03Mesh",
			"primitives":[
				{
					"attributes":{
						"POSITION":0,
						"NORMAL":1,
						"TEXCOORD_0":2
					},
					"indices":3
				}
			]
		}
	],
	"accessors":[
		{
			"bufferView":0,
			"componentType":5126,
			"count":183,
			"max":[
				0.49981242418289185,
				1.4224435091018677,
				0.14363110065460205
			],
			"min":[
				-0.49981242418289185,
				-1.4224435091018677,
				-0.14363110065460205
			],
			"type":"VEC3"
		},
		{
			"bufferView":1,
			"componentType":5126,
			"count":183,
			"type":"VEC3"
		},
		{
			"bufferView":2,
			"componentType":5126,
			"count":183,
			"type":"VEC2"
		},
		{
			"bufferView":3,
			"componentType":5123,
			"count":348,
			"type":"SCALAR"
		}
	],
	"bufferViews":[
		{
			"buffer":0,
			"byteLength":2196,
			"byteOffset":0,
			"target":34962
		},
		{
			"buffer":0,
			"byteLength":2196,
			"byteOffset":2196,
			"target":34962
		},
		{
			"buffer":0,
			"byteLength":1464,
			"byteOffset":4392,
			"target":34962
		},
		{
			"buffer":0,
			"byteLength":696,
			"byteOffset":5856,
			"target":34963
		}
	],
	"buffers":[
		{
			"byteLength":6552,
			"uri":"Signpost03.bin"
		}
	]
}
