{
	"asset":{
		"generator":"Khronos glTF Blender I/O v4.2.60",
		"version":"2.0"
	},
	"scene":0,
	"scenes":[
		{
			"name":"Scene",
			"nodes":[
				0
			]
		}
	],
	"nodes":[
		{
			"mesh":0,
			"name":"Bridge01"
		}
	],
	"meshes":[
		{
			"name":"Bridge01Mesh",
			"primitives":[
				{
					"attributes":{
						"POSITION":0,
						"NORMAL":1,
						"TEXCOORD_0":2
					},
					"indices":3
				}
			]
		}
	],
	"accessors":[
		{
			"bufferView":0,
			"componentType":5126,
			"count":1848,
			"max":[
				1.9370887279510498,
				0.8635240793228149,
				1.2340035438537598
			],
			"min":[
				-1.9370887279510498,
				-0.8635240793228149,
				-1.2340035438537598
			],
			"type":"VEC3"
		},
		{
			"bufferView":1,
			"componentType":5126,
			"count":1848,
			"type":"VEC3"
		},
		{
			"bufferView":2,
			"componentType":5126,
			"count":1848,
			"type":"VEC2"
		},
		{
			"bufferView":3,
			"componentType":5123,
			"count":3012,
			"type":"SCALAR"
		}
	],
	"bufferViews":[
		{
			"buffer":0,
			"byteLength":22176,
			"byteOffset":0,
			"target":34962
		},
		{
			"buffer":0,
			"byteLength":22176,
			"byteOffset":22176,
			"target":34962
		},
		{
			"buffer":0,
			"byteLength":14784,
			"byteOffset":44352,
			"target":34962
		},
		{
			"buffer":0,
			"byteLength":6024,
			"byteOffset":59136,
			"target":34963
		}
	],
	"buffers":[
		{
			"byteLength":65160,
			"uri":"Bridge01.bin"
		}
	]
}
