{
	"asset":{
		"generator":"Khronos glTF Blender I/O v4.2.60",
		"version":"2.0"
	},
	"scene":0,
	"scenes":[
		{
			"name":"Scene",
			"nodes":[
				0
			]
		}
	],
	"nodes":[
		{
			"mesh":0,
			"name":"PicketFenceLong"
		}
	],
	"meshes":[
		{
			"name":"PicketFenceLongMesh",
			"primitives":[
				{
					"attributes":{
						"POSITION":0,
						"NORMAL":1,
						"TEXCOORD_0":2
					},
					"indices":3
				}
			]
		}
	],
	"accessors":[
		{
			"bufferView":0,
			"componentType":5126,
			"count":1236,
			"max":[
				2.3502120971679688,
				0.7090441584587097,
				0.12257783859968185
			],
			"min":[
				-2.3502120971679688,
				-0.7090441584587097,
				-0.12257783859968185
			],
			"type":"VEC3"
		},
		{
			"bufferView":1,
			"componentType":5126,
			"count":1236,
			"type":"VEC3"
		},
		{
			"bufferView":2,
			"componentType":5126,
			"count":1236,
			"type":"VEC2"
		},
		{
			"bufferView":3,
			"componentType":5123,
			"count":2076,
			"type":"SCALAR"
		}
	],
	"bufferViews":[
		{
			"buffer":0,
			"byteLength":14832,
			"byteOffset":0,
			"target":34962
		},
		{
			"buffer":0,
			"byteLength":14832,
			"byteOffset":14832,
			"target":34962
		},
		{
			"buffer":0,
			"byteLength":9888,
			"byteOffset":29664,
			"target":34962
		},
		{
			"buffer":0,
			"byteLength":4152,
			"byteOffset":39552,
			"target":34963
		}
	],
	"buffers":[
		{
			"byteLength":43704,
			"uri":"FenceFenceLong.bin"
		}
	]
}
