{
	"asset":{
		"generator":"Khronos glTF Blender I/O v4.2.60",
		"version":"2.0"
	},
	"scene":0,
	"scenes":[
		{
			"name":"Scene",
			"nodes":[
				0
			]
		}
	],
	"nodes":[
		{
			"mesh":0,
			"name":"Barrel03"
		}
	],
	"meshes":[
		{
			"name":"Barrel03Mesh",
			"primitives":[
				{
					"attributes":{
						"POSITION":0,
						"NORMAL":1,
						"TEXCOORD_0":2
					},
					"indices":3
				}
			]
		}
	],
	"accessors":[
		{
			"bufferView":0,
			"componentType":5126,
			"count":1230,
			"max":[
				0.41474536061286926,
				0.4894106984138489,
				0.41474485397338867
			],
			"min":[
				-0.41474536061286926,
				-0.4894106984138489,
				-0.41474485397338867
			],
			"type":"VEC3"
		},
		{
			"bufferView":1,
			"componentType":5126,
			"count":1230,
			"type":"VEC3"
		},
		{
			"bufferView":2,
			"componentType":5126,
			"count":1230,
			"type":"VEC2"
		},
		{
			"bufferView":3,
			"componentType":5123,
			"count":1926,
			"type":"SCALAR"
		}
	],
	"bufferViews":[
		{
			"buffer":0,
			"byteLength":14760,
			"byteOffset":0,
			"target":34962
		},
		{
			"buffer":0,
			"byteLength":14760,
			"byteOffset":14760,
			"target":34962
		},
		{
			"buffer":0,
			"byteLength":9840,
			"byteOffset":29520,
			"target":34962
		},
		{
			"buffer":0,
			"byteLength":3852,
			"byteOffset":39360,
			"target":34963
		}
	],
	"buffers":[
		{
			"byteLength":43212,
			"uri":"Barrel03.bin"
		}
	]
}
