{
	"asset":{
		"generator":"Khronos glTF Blender I/O v4.2.60",
		"version":"2.0"
	},
	"scene":0,
	"scenes":[
		{
			"name":"Scene",
			"nodes":[
				0
			]
		}
	],
	"nodes":[
		{
			"mesh":0,
			"name":"Crate01"
		}
	],
	"meshes":[
		{
			"name":"Crate01Mesh",
			"primitives":[
				{
					"attributes":{
						"POSITION":0,
						"NORMAL":1,
						"TEXCOORD_0":2
					},
					"indices":3
				}
			]
		}
	],
	"accessors":[
		{
			"bufferView":0,
			"componentType":5126,
			"count":960,
			"max":[
				0.39281249046325684,
				0.420640766620636,
				0.40222179889678955
			],
			"min":[
				-0.39281249046325684,
				-0.420640766620636,
				-0.40222179889678955
			],
			"type":"VEC3"
		},
		{
			"bufferView":1,
			"componentType":5126,
			"count":960,
			"type":"VEC3"
		},
		{
			"bufferView":2,
			"componentType":5126,
			"count":960,
			"type":"VEC2"
		},
		{
			"bufferView":3,
			"componentType":5123,
			"count":1440,
			"type":"SCALAR"
		}
	],
	"bufferViews":[
		{
			"buffer":0,
			"byteLength":11520,
			"byteOffset":0,
			"target":34962
		},
		{
			"buffer":0,
			"byteLength":11520,
			"byteOffset":11520,
			"target":34962
		},
		{
			"buffer":0,
			"byteLength":7680,
			"byteOffset":23040,
			"target":34962
		},
		{
			"buffer":0,
			"byteLength":2880,
			"byteOffset":30720,
			"target":34963
		}
	],
	"buffers":[
		{
			"byteLength":33600,
			"uri":"Crate01.bin"
		}
	]
}
