{
	"asset":{
		"generator":"Khronos glTF Blender I/O v4.2.60",
		"version":"2.0"
	},
	"scene":0,
	"scenes":[
		{
			"name":"Scene",
			"nodes":[
				0
			]
		}
	],
	"nodes":[
		{
			"mesh":0,
			"name":"FenceGate"
		}
	],
	"meshes":[
		{
			"name":"FenceGateMesh",
			"primitives":[
				{
					"attributes":{
						"POSITION":0,
						"NORMAL":1,
						"TEXCOORD_0":2
					},
					"indices":3
				}
			]
		}
	],
	"accessors":[
		{
			"bufferView":0,
			"componentType":5126,
			"count":816,
			"max":[
				0.9136725664138794,
				0.7969663143157959,
				0.15855437517166138
			],
			"min":[
				-0.9136725664138794,
				-0.7969663143157959,
				-0.15855437517166138
			],
			"type":"VEC3"
		},
		{
			"bufferView":1,
			"componentType":5126,
			"count":816,
			"type":"VEC3"
		},
		{
			"bufferView":2,
			"componentType":5126,
			"count":816,
			"type":"VEC2"
		},
		{
			"bufferView":3,
			"componentType":5123,
			"count":1332,
			"type":"SCALAR"
		}
	],
	"bufferViews":[
		{
			"buffer":0,
			"byteLength":9792,
			"byteOffset":0,
			"target":34962
		},
		{
			"buffer":0,
			"byteLength":9792,
			"byteOffset":9792,
			"target":34962
		},
		{
			"buffer":0,
			"byteLength":6528,
			"byteOffset":19584,
			"target":34962
		},
		{
			"buffer":0,
			"byteLength":2664,
			"byteOffset":26112,
			"target":34963
		}
	],
	"buffers":[
		{
			"byteLength":28776,
			"uri":"FenceGate.bin"
		}
	]
}
