{
	"asset":{
		"generator":"Khronos glTF Blender I/O v4.2.60",
		"version":"2.0"
	},
	"scene":0,
	"scenes":[
		{
			"name":"Scene",
			"nodes":[
				0
			]
		}
	],
	"nodes":[
		{
			"mesh":0,
			"name":"Chest04"
		}
	],
	"meshes":[
		{
			"name":"Chest04Mesh",
			"primitives":[
				{
					"attributes":{
						"POSITION":0,
						"NORMAL":1,
						"TEXCOORD_0":2
					},
					"indices":3
				}
			]
		}
	],
	"accessors":[
		{
			"bufferView":0,
			"componentType":5126,
			"count":2896,
			"max":[
				0.6570934057235718,
				0.4380679130554199,
				0.4310835301876068
			],
			"min":[
				-0.6570934057235718,
				-0.4380679130554199,
				-0.4310835301876068
			],
			"type":"VEC3"
		},
		{
			"bufferView":1,
			"componentType":5126,
			"count":2896,
			"type":"VEC3"
		},
		{
			"bufferView":2,
			"componentType":5126,
			"count":2896,
			"type":"VEC2"
		},
		{
			"bufferView":3,
			"componentType":5123,
			"count":4776,
			"type":"SCALAR"
		}
	],
	"bufferViews":[
		{
			"buffer":0,
			"byteLength":34752,
			"byteOffset":0,
			"target":34962
		},
		{
			"buffer":0,
			"byteLength":34752,
			"byteOffset":34752,
			"target":34962
		},
		{
			"buffer":0,
			"byteLength":23168,
			"byteOffset":69504,
			"target":34962
		},
		{
			"buffer":0,
			"byteLength":9552,
			"byteOffset":92672,
			"target":34963
		}
	],
	"buffers":[
		{
			"byteLength":102224,
			"uri":"Chest04.bin"
		}
	]
}
