{
	"asset":{
		"generator":"Khronos glTF Blender I/O v4.2.69",
		"version":"2.0"
	},
	"scene":0,
	"scenes":[
		{
			"name":"Scene",
			"nodes":[
				0
			]
		}
	],
	"nodes":[
		{
			"mesh":0,
			"name":"Rock11",
			"rotation":[
				0.7071068286895752,
				0,
				0,
				0.7071068286895752
			],
			"scale":[
				9.753898620605469,
				9.753898620605469,
				9.753898620605469
			]
		}
	],
	"meshes":[
		{
			"name":"Rock Small 6.007",
			"primitives":[
				{
					"attributes":{
						"POSITION":0,
						"NORMAL":1,
						"TEXCOORD_0":2
					},
					"indices":3
				}
			]
		}
	],
	"accessors":[
		{
			"bufferView":0,
			"componentType":5126,
			"count":515,
			"max":[
				0.03277614712715149,
				0.033940039575099945,
				0.0193357951939106
			],
			"min":[
				-0.03277614712715149,
				-0.033940039575099945,
				-0.0193357951939106
			],
			"type":"VEC3"
		},
		{
			"bufferView":1,
			"componentType":5126,
			"count":515,
			"type":"VEC3"
		},
		{
			"bufferView":2,
			"componentType":5126,
			"count":515,
			"type":"VEC2"
		},
		{
			"bufferView":3,
			"componentType":5123,
			"count":2658,
			"type":"SCALAR"
		}
	],
	"bufferViews":[
		{
			"buffer":0,
			"byteLength":6180,
			"byteOffset":0,
			"target":34962
		},
		{
			"buffer":0,
			"byteLength":6180,
			"byteOffset":6180,
			"target":34962
		},
		{
			"buffer":0,
			"byteLength":4120,
			"byteOffset":12360,
			"target":34962
		},
		{
			"buffer":0,
			"byteLength":5316,
			"byteOffset":16480,
			"target":34963
		}
	],
	"buffers":[
		{
			"byteLength":21796,
			"uri":"Rock11.bin"
		}
	]
}
