{
	"asset":{
		"generator":"Khronos glTF Blender I/O v4.2.69",
		"version":"2.0"
	},
	"scene":0,
	"scenes":[
		{
			"name":"Scene",
			"nodes":[
				0
			]
		}
	],
	"nodes":[
		{
			"mesh":0,
			"name":"Rock1",
			"rotation":[
				0.7071068286895752,
				0,
				0,
				0.7071068286895752
			],
			"scale":[
				9.871647834777832,
				9.8716459274292,
				9.8716459274292
			]
		}
	],
	"meshes":[
		{
			"name":"Rock1",
			"primitives":[
				{
					"attributes":{
						"POSITION":0,
						"NORMAL":1,
						"TEXCOORD_0":2
					},
					"indices":3
				}
			]
		}
	],
	"accessors":[
		{
			"bufferView":0,
			"componentType":5126,
			"count":1577,
			"max":[
				0.12706422805786133,
				0.12295612692832947,
				0.10279238224029541
			],
			"min":[
				-0.12706422805786133,
				-0.12295612692832947,
				-0.10279238224029541
			],
			"type":"VEC3"
		},
		{
			"bufferView":1,
			"componentType":5126,
			"count":1577,
			"type":"VEC3"
		},
		{
			"bufferView":2,
			"componentType":5126,
			"count":1577,
			"type":"VEC2"
		},
		{
			"bufferView":3,
			"componentType":5123,
			"count":8520,
			"type":"SCALAR"
		}
	],
	"bufferViews":[
		{
			"buffer":0,
			"byteLength":18924,
			"byteOffset":0,
			"target":34962
		},
		{
			"buffer":0,
			"byteLength":18924,
			"byteOffset":18924,
			"target":34962
		},
		{
			"buffer":0,
			"byteLength":12616,
			"byteOffset":37848,
			"target":34962
		},
		{
			"buffer":0,
			"byteLength":17040,
			"byteOffset":50464,
			"target":34963
		}
	],
	"buffers":[
		{
			"byteLength":67504,
			"uri":"Rock1.bin"
		}
	]
}
