{
	"asset":{
		"generator":"Khronos glTF Blender I/O v4.2.69",
		"version":"2.0"
	},
	"scene":0,
	"scenes":[
		{
			"name":"Scene",
			"nodes":[
				0
			]
		}
	],
	"nodes":[
		{
			"mesh":0,
			"name":"Rock3",
			"rotation":[
				0.7071068286895752,
				0,
				0,
				0.7071068286895752
			],
			"scale":[
				9.71895694732666,
				9.71895694732666,
				9.71895694732666
			]
		}
	],
	"meshes":[
		{
			"name":"Rock3",
			"primitives":[
				{
					"attributes":{
						"POSITION":0,
						"NORMAL":1,
						"TEXCOORD_0":2
					},
					"indices":3
				}
			]
		}
	],
	"accessors":[
		{
			"bufferView":0,
			"componentType":5126,
			"count":713,
			"max":[
				0.08475825190544128,
				0.07938358187675476,
				0.0755523145198822
			],
			"min":[
				-0.08475825190544128,
				-0.07938358187675476,
				-0.0755523145198822
			],
			"type":"VEC3"
		},
		{
			"bufferView":1,
			"componentType":5126,
			"count":713,
			"type":"VEC3"
		},
		{
			"bufferView":2,
			"componentType":5126,
			"count":713,
			"type":"VEC2"
		},
		{
			"bufferView":3,
			"componentType":5123,
			"count":3768,
			"type":"SCALAR"
		}
	],
	"bufferViews":[
		{
			"buffer":0,
			"byteLength":8556,
			"byteOffset":0,
			"target":34962
		},
		{
			"buffer":0,
			"byteLength":8556,
			"byteOffset":8556,
			"target":34962
		},
		{
			"buffer":0,
			"byteLength":5704,
			"byteOffset":17112,
			"target":34962
		},
		{
			"buffer":0,
			"byteLength":7536,
			"byteOffset":22816,
			"target":34963
		}
	],
	"buffers":[
		{
			"byteLength":30352,
			"uri":"Rock3.bin"
		}
	]
}
