{
	"asset":{
		"generator":"Khronos glTF Blender I/O v4.2.69",
		"version":"2.0"
	},
	"scene":0,
	"scenes":[
		{
			"name":"Scene",
			"nodes":[
				0
			]
		}
	],
	"nodes":[
		{
			"mesh":0,
			"name":"Rock6",
			"rotation":[
				0.008725392632186413,
				-0.00014118364197202027,
				-0.016178347170352936,
				0.9998310804367065
			],
			"scale":[
				1.0252273082733154,
				1.0252271890640259,
				1.0252270698547363
			]
		}
	],
	"meshes":[
		{
			"name":"Rock6",
			"primitives":[
				{
					"attributes":{
						"POSITION":0,
						"NORMAL":1,
						"TEXCOORD_0":2
					},
					"indices":3
				}
			]
		}
	],
	"accessors":[
		{
			"bufferView":0,
			"componentType":5126,
			"count":1011,
			"max":[
				0.8990586996078491,
				0.4037804901599884,
				0.7974289655685425
			],
			"min":[
				-0.8990586996078491,
				-0.4037804901599884,
				-0.7974289655685425
			],
			"type":"VEC3"
		},
		{
			"bufferView":1,
			"componentType":5126,
			"count":1011,
			"type":"VEC3"
		},
		{
			"bufferView":2,
			"componentType":5126,
			"count":1011,
			"type":"VEC2"
		},
		{
			"bufferView":3,
			"componentType":5123,
			"count":5328,
			"type":"SCALAR"
		}
	],
	"bufferViews":[
		{
			"buffer":0,
			"byteLength":12132,
			"byteOffset":0,
			"target":34962
		},
		{
			"buffer":0,
			"byteLength":12132,
			"byteOffset":12132,
			"target":34962
		},
		{
			"buffer":0,
			"byteLength":8088,
			"byteOffset":24264,
			"target":34962
		},
		{
			"buffer":0,
			"byteLength":10656,
			"byteOffset":32352,
			"target":34963
		}
	],
	"buffers":[
		{
			"byteLength":43008,
			"uri":"Rock6.bin"
		}
	]
}
