{
	"asset":{
		"generator":"Khronos glTF Blender I/O v4.2.69",
		"version":"2.0"
	},
	"scene":0,
	"scenes":[
		{
			"name":"Scene",
			"nodes":[
				0
			]
		}
	],
	"nodes":[
		{
			"mesh":0,
			"name":"Rock5",
			"rotation":[
				0.7071068286895752,
				0,
				0,
				0.7071068286895752
			],
			"scale":[
				11.76928997039795,
				11.76928997039795,
				11.76928997039795
			]
		}
	],
	"meshes":[
		{
			"name":"Rock5",
			"primitives":[
				{
					"attributes":{
						"POSITION":0,
						"NORMAL":1,
						"TEXCOORD_0":2
					},
					"indices":3
				}
			]
		}
	],
	"accessors":[
		{
			"bufferView":0,
			"componentType":5126,
			"count":2300,
			"max":[
				0.07161426544189453,
				0.06219005584716797,
				0.07799312472343445
			],
			"min":[
				-0.07161426544189453,
				-0.06219005584716797,
				-0.07799312472343445
			],
			"type":"VEC3"
		},
		{
			"bufferView":1,
			"componentType":5126,
			"count":2300,
			"type":"VEC3"
		},
		{
			"bufferView":2,
			"componentType":5126,
			"count":2300,
			"type":"VEC2"
		},
		{
			"bufferView":3,
			"componentType":5123,
			"count":12786,
			"type":"SCALAR"
		}
	],
	"bufferViews":[
		{
			"buffer":0,
			"byteLength":27600,
			"byteOffset":0,
			"target":34962
		},
		{
			"buffer":0,
			"byteLength":27600,
			"byteOffset":27600,
			"target":34962
		},
		{
			"buffer":0,
			"byteLength":18400,
			"byteOffset":55200,
			"target":34962
		},
		{
			"buffer":0,
			"byteLength":25572,
			"byteOffset":73600,
			"target":34963
		}
	],
	"buffers":[
		{
			"byteLength":99172,
			"uri":"Rock5.bin"
		}
	]
}
