{
	"asset":{
		"generator":"Khronos glTF Blender I/O v4.2.69",
		"version":"2.0"
	},
	"scene":0,
	"scenes":[
		{
			"name":"Scene",
			"nodes":[
				0
			]
		}
	],
	"nodes":[
		{
			"mesh":0,
			"name":"Rock9",
			"rotation":[
				0.7071068286895752,
				0,
				0,
				0.7071068286895752
			],
			"scale":[
				9.71895694732666,
				9.71895694732666,
				9.71895694732666
			]
		}
	],
	"meshes":[
		{
			"name":"Rock9",
			"primitives":[
				{
					"attributes":{
						"POSITION":0,
						"NORMAL":1,
						"TEXCOORD_0":2
					},
					"indices":3
				}
			]
		}
	],
	"accessors":[
		{
			"bufferView":0,
			"componentType":5126,
			"count":662,
			"max":[
				0.06128079444169998,
				0.058301493525505066,
				0.0343538336455822
			],
			"min":[
				-0.06128079444169998,
				-0.058301493525505066,
				-0.0343538336455822
			],
			"type":"VEC3"
		},
		{
			"bufferView":1,
			"componentType":5126,
			"count":662,
			"type":"VEC3"
		},
		{
			"bufferView":2,
			"componentType":5126,
			"count":662,
			"type":"VEC2"
		},
		{
			"bufferView":3,
			"componentType":5123,
			"count":3456,
			"type":"SCALAR"
		}
	],
	"bufferViews":[
		{
			"buffer":0,
			"byteLength":7944,
			"byteOffset":0,
			"target":34962
		},
		{
			"buffer":0,
			"byteLength":7944,
			"byteOffset":7944,
			"target":34962
		},
		{
			"buffer":0,
			"byteLength":5296,
			"byteOffset":15888,
			"target":34962
		},
		{
			"buffer":0,
			"byteLength":6912,
			"byteOffset":21184,
			"target":34963
		}
	],
	"buffers":[
		{
			"byteLength":28096,
			"uri":"Rock9.bin"
		}
	]
}
