{
	"asset":{
		"generator":"Khronos glTF Blender I/O v4.2.60",
		"version":"2.0"
	},
	"scene":0,
	"scenes":[
		{
			"name":"Scene",
			"nodes":[
				0
			]
		}
	],
	"nodes":[
		{
			"mesh":0,
			"name":"PicketFenceConnector"
		}
	],
	"meshes":[
		{
			"name":"PicketFenceConnectorMesh",
			"primitives":[
				{
					"attributes":{
						"POSITION":0,
						"NORMAL":1,
						"TEXCOORD_0":2
					},
					"indices":3
				}
			]
		}
	],
	"accessors":[
		{
			"bufferView":0,
			"componentType":5126,
			"count":510,
			"max":[
				1.1279937028884888,
				0.6976759433746338,
				0.06732144206762314
			],
			"min":[
				-1.1279937028884888,
				-0.6976759433746338,
				-0.06732144206762314
			],
			"type":"VEC3"
		},
		{
			"bufferView":1,
			"componentType":5126,
			"count":510,
			"type":"VEC3"
		},
		{
			"bufferView":2,
			"componentType":5126,
			"count":510,
			"type":"VEC2"
		},
		{
			"bufferView":3,
			"componentType":5123,
			"count":876,
			"type":"SCALAR"
		}
	],
	"bufferViews":[
		{
			"buffer":0,
			"byteLength":6120,
			"byteOffset":0,
			"target":34962
		},
		{
			"buffer":0,
			"byteLength":6120,
			"byteOffset":6120,
			"target":34962
		},
		{
			"buffer":0,
			"byteLength":4080,
			"byteOffset":12240,
			"target":34962
		},
		{
			"buffer":0,
			"byteLength":1752,
			"byteOffset":16320,
			"target":34963
		}
	],
	"buffers":[
		{
			"byteLength":18072,
			"uri":"PicketFenceConnector.bin"
		}
	]
}
