{
	"asset":{
		"generator":"Khronos glTF Blender I/O v4.2.60",
		"version":"2.0"
	},
	"scene":0,
	"scenes":[
		{
			"name":"Scene",
			"nodes":[
				0
			]
		}
	],
	"nodes":[
		{
			"mesh":0,
			"name":"Barrel01"
		}
	],
	"meshes":[
		{
			"name":"Barrel01Mesh",
			"primitives":[
				{
					"attributes":{
						"POSITION":0,
						"NORMAL":1,
						"TEXCOORD_0":2
					},
					"indices":3
				}
			]
		}
	],
	"accessors":[
		{
			"bufferView":0,
			"componentType":5126,
			"count":1654,
			"max":[
				0.41682925820350647,
				0.49674859642982483,
				0.41682928800582886
			],
			"min":[
				-0.41682925820350647,
				-0.49674859642982483,
				-0.41682928800582886
			],
			"type":"VEC3"
		},
		{
			"bufferView":1,
			"componentType":5126,
			"count":1654,
			"type":"VEC3"
		},
		{
			"bufferView":2,
			"componentType":5126,
			"count":1654,
			"type":"VEC2"
		},
		{
			"bufferView":3,
			"componentType":5123,
			"count":2544,
			"type":"SCALAR"
		}
	],
	"bufferViews":[
		{
			"buffer":0,
			"byteLength":19848,
			"byteOffset":0,
			"target":34962
		},
		{
			"buffer":0,
			"byteLength":19848,
			"byteOffset":19848,
			"target":34962
		},
		{
			"buffer":0,
			"byteLength":13232,
			"byteOffset":39696,
			"target":34962
		},
		{
			"buffer":0,
			"byteLength":5088,
			"byteOffset":52928,
			"target":34963
		}
	],
	"buffers":[
		{
			"byteLength":58016,
			"uri":"Barrel01.bin"
		}
	]
}
