{
	"asset":{
		"generator":"Khronos glTF Blender I/O v4.2.60",
		"version":"2.0"
	},
	"scene":0,
	"scenes":[
		{
			"name":"Scene",
			"nodes":[
				0
			]
		}
	],
	"nodes":[
		{
			"mesh":0,
			"name":"Barrel02"
		}
	],
	"meshes":[
		{
			"name":"Barrel02Mesh",
			"primitives":[
				{
					"attributes":{
						"POSITION":0,
						"NORMAL":1,
						"TEXCOORD_0":2
					},
					"indices":3
				}
			]
		}
	],
	"accessors":[
		{
			"bufferView":0,
			"componentType":5126,
			"count":1538,
			"max":[
				0.42437636852264404,
				0.47684353590011597,
				0.42437654733657837
			],
			"min":[
				-0.42437636852264404,
				-0.47684353590011597,
				-0.42437654733657837
			],
			"type":"VEC3"
		},
		{
			"bufferView":1,
			"componentType":5126,
			"count":1538,
			"type":"VEC3"
		},
		{
			"bufferView":2,
			"componentType":5126,
			"count":1538,
			"type":"VEC2"
		},
		{
			"bufferView":3,
			"componentType":5123,
			"count":2352,
			"type":"SCALAR"
		}
	],
	"bufferViews":[
		{
			"buffer":0,
			"byteLength":18456,
			"byteOffset":0,
			"target":34962
		},
		{
			"buffer":0,
			"byteLength":18456,
			"byteOffset":18456,
			"target":34962
		},
		{
			"buffer":0,
			"byteLength":12304,
			"byteOffset":36912,
			"target":34962
		},
		{
			"buffer":0,
			"byteLength":4704,
			"byteOffset":49216,
			"target":34963
		}
	],
	"buffers":[
		{
			"byteLength":53920,
			"uri":"Barrel02.bin"
		}
	]
}
