{
	"asset":{
		"generator":"Khronos glTF Blender I/O v4.2.60",
		"version":"2.0"
	},
	"scene":0,
	"scenes":[
		{
			"name":"Scene",
			"nodes":[
				0
			]
		}
	],
	"nodes":[
		{
			"mesh":0,
			"name":"Wagon02"
		}
	],
	"meshes":[
		{
			"name":"Wagon02Mesh",
			"primitives":[
				{
					"attributes":{
						"POSITION":0,
						"NORMAL":1,
						"TEXCOORD_0":2
					},
					"indices":3
				}
			]
		}
	],
	"accessors":[
		{
			"bufferView":0,
			"componentType":5126,
			"count":2360,
			"max":[
				1.7364318370819092,
				0.9071878790855408,
				0.8031463623046875
			],
			"min":[
				-1.7364318370819092,
				-0.9071878790855408,
				-0.8031463623046875
			],
			"type":"VEC3"
		},
		{
			"bufferView":1,
			"componentType":5126,
			"count":2360,
			"type":"VEC3"
		},
		{
			"bufferView":2,
			"componentType":5126,
			"count":2360,
			"type":"VEC2"
		},
		{
			"bufferView":3,
			"componentType":5123,
			"count":3900,
			"type":"SCALAR"
		}
	],
	"bufferViews":[
		{
			"buffer":0,
			"byteLength":28320,
			"byteOffset":0,
			"target":34962
		},
		{
			"buffer":0,
			"byteLength":28320,
			"byteOffset":28320,
			"target":34962
		},
		{
			"buffer":0,
			"byteLength":18880,
			"byteOffset":56640,
			"target":34962
		},
		{
			"buffer":0,
			"byteLength":7800,
			"byteOffset":75520,
			"target":34963
		}
	],
	"buffers":[
		{
			"byteLength":83320,
			"uri":"Wagon02.bin"
		}
	]
}
