{
	"asset":{
		"generator":"Khronos glTF Blender I/O v4.2.60",
		"version":"2.0"
	},
	"scene":0,
	"scenes":[
		{
			"name":"Scene",
			"nodes":[
				0
			]
		}
	],
	"nodes":[
		{
			"mesh":0,
			"name":"Chest02"
		}
	],
	"meshes":[
		{
			"name":"Chest02Mesh",
			"primitives":[
				{
					"attributes":{
						"POSITION":0,
						"NORMAL":1,
						"TEXCOORD_0":2
					},
					"indices":3
				}
			]
		}
	],
	"accessors":[
		{
			"bufferView":0,
			"componentType":5126,
			"count":3860,
			"max":[
				0.6708430051803589,
				0.42861372232437134,
				0.4310835003852844
			],
			"min":[
				-0.6708430051803589,
				-0.42861372232437134,
				-0.4310835003852844
			],
			"type":"VEC3"
		},
		{
			"bufferView":1,
			"componentType":5126,
			"count":3860,
			"type":"VEC3"
		},
		{
			"bufferView":2,
			"componentType":5126,
			"count":3860,
			"type":"VEC2"
		},
		{
			"bufferView":3,
			"componentType":5123,
			"count":6408,
			"type":"SCALAR"
		}
	],
	"bufferViews":[
		{
			"buffer":0,
			"byteLength":46320,
			"byteOffset":0,
			"target":34962
		},
		{
			"buffer":0,
			"byteLength":46320,
			"byteOffset":46320,
			"target":34962
		},
		{
			"buffer":0,
			"byteLength":30880,
			"byteOffset":92640,
			"target":34962
		},
		{
			"buffer":0,
			"byteLength":12816,
			"byteOffset":123520,
			"target":34963
		}
	],
	"buffers":[
		{
			"byteLength":136336,
			"uri":"Chest02.bin"
		}
	]
}
