{
	"asset":{
		"generator":"Khronos glTF Blender I/O v4.2.60",
		"version":"2.0"
	},
	"scene":0,
	"scenes":[
		{
			"name":"Scene",
			"nodes":[
				0
			]
		}
	],
	"nodes":[
		{
			"mesh":0,
			"name":"Keg"
		}
	],
	"meshes":[
		{
			"name":"KegMesh",
			"primitives":[
				{
					"attributes":{
						"POSITION":0,
						"NORMAL":1,
						"TEXCOORD_0":2
					},
					"indices":3
				}
			]
		}
	],
	"accessors":[
		{
			"bufferView":0,
			"componentType":5126,
			"count":2637,
			"max":[
				1.020959734916687,
				0.9587700366973877,
				0.8193404674530029
			],
			"min":[
				-1.020959734916687,
				-0.9587700366973877,
				-0.8193404674530029
			],
			"type":"VEC3"
		},
		{
			"bufferView":1,
			"componentType":5126,
			"count":2637,
			"type":"VEC3"
		},
		{
			"bufferView":2,
			"componentType":5126,
			"count":2637,
			"type":"VEC2"
		},
		{
			"bufferView":3,
			"componentType":5123,
			"count":4224,
			"type":"SCALAR"
		}
	],
	"bufferViews":[
		{
			"buffer":0,
			"byteLength":31644,
			"byteOffset":0,
			"target":34962
		},
		{
			"buffer":0,
			"byteLength":31644,
			"byteOffset":31644,
			"target":34962
		},
		{
			"buffer":0,
			"byteLength":21096,
			"byteOffset":63288,
			"target":34962
		},
		{
			"buffer":0,
			"byteLength":8448,
			"byteOffset":84384,
			"target":34963
		}
	],
	"buffers":[
		{
			"byteLength":92832,
			"uri":"Keg.bin"
		}
	]
}
