{
	"asset":{
		"generator":"Khronos glTF Blender I/O v4.2.60",
		"version":"2.0"
	},
	"scene":0,
	"scenes":[
		{
			"name":"Scene",
			"nodes":[
				0
			]
		}
	],
	"nodes":[
		{
			"mesh":0,
			"name":"Basket02"
		}
	],
	"meshes":[
		{
			"name":"Basket02Mesh",
			"primitives":[
				{
					"attributes":{
						"POSITION":0,
						"NORMAL":1,
						"TEXCOORD_0":2
					},
					"indices":3
				}
			]
		}
	],
	"accessors":[
		{
			"bufferView":0,
			"componentType":5126,
			"count":480,
			"max":[
				0.3255804777145386,
				0.18440815806388855,
				0.23877298831939697
			],
			"min":[
				-0.3255804777145386,
				-0.18440815806388855,
				-0.23877298831939697
			],
			"type":"VEC3"
		},
		{
			"bufferView":1,
			"componentType":5126,
			"count":480,
			"type":"VEC3"
		},
		{
			"bufferView":2,
			"componentType":5126,
			"count":480,
			"type":"VEC2"
		},
		{
			"bufferView":3,
			"componentType":5123,
			"count":720,
			"type":"SCALAR"
		}
	],
	"bufferViews":[
		{
			"buffer":0,
			"byteLength":5760,
			"byteOffset":0,
			"target":34962
		},
		{
			"buffer":0,
			"byteLength":5760,
			"byteOffset":5760,
			"target":34962
		},
		{
			"buffer":0,
			"byteLength":3840,
			"byteOffset":11520,
			"target":34962
		},
		{
			"buffer":0,
			"byteLength":1440,
			"byteOffset":15360,
			"target":34963
		}
	],
	"buffers":[
		{
			"byteLength":16800,
			"uri":"Basket02.bin"
		}
	]
}
