{
	"asset":{
		"generator":"Khronos glTF Blender I/O v4.2.60",
		"version":"2.0"
	},
	"scene":0,
	"scenes":[
		{
			"name":"Scene",
			"nodes":[
				0
			]
		}
	],
	"nodes":[
		{
			"mesh":0,
			"name":"Wagon01"
		}
	],
	"meshes":[
		{
			"name":"Wagon01Mesh",
			"primitives":[
				{
					"attributes":{
						"POSITION":0,
						"NORMAL":1,
						"TEXCOORD_0":2
					},
					"indices":3
				}
			]
		}
	],
	"accessors":[
		{
			"bufferView":0,
			"componentType":5126,
			"count":4028,
			"max":[
				1.1878083944320679,
				0.5317180156707764,
				0.6863313913345337
			],
			"min":[
				-1.1878083944320679,
				-0.5317180156707764,
				-0.6863313913345337
			],
			"type":"VEC3"
		},
		{
			"bufferView":1,
			"componentType":5126,
			"count":4028,
			"type":"VEC3"
		},
		{
			"bufferView":2,
			"componentType":5126,
			"count":4028,
			"type":"VEC2"
		},
		{
			"bufferView":3,
			"componentType":5123,
			"count":6732,
			"type":"SCALAR"
		}
	],
	"bufferViews":[
		{
			"buffer":0,
			"byteLength":48336,
			"byteOffset":0,
			"target":34962
		},
		{
			"buffer":0,
			"byteLength":48336,
			"byteOffset":48336,
			"target":34962
		},
		{
			"buffer":0,
			"byteLength":32224,
			"byteOffset":96672,
			"target":34962
		},
		{
			"buffer":0,
			"byteLength":13464,
			"byteOffset":128896,
			"target":34963
		}
	],
	"buffers":[
		{
			"byteLength":142360,
			"uri":"Wagon01.bin"
		}
	]
}
