{
	"asset":{
		"generator":"Khronos glTF Blender I/O v4.2.60",
		"version":"2.0"
	},
	"scene":0,
	"scenes":[
		{
			"name":"Scene",
			"nodes":[
				0
			]
		}
	],
	"nodes":[
		{
			"mesh":0,
			"name":"Chest03"
		}
	],
	"meshes":[
		{
			"name":"Chest03Mesh",
			"primitives":[
				{
					"attributes":{
						"POSITION":0,
						"NORMAL":1,
						"TEXCOORD_0":2
					},
					"indices":3
				}
			]
		}
	],
	"accessors":[
		{
			"bufferView":0,
			"componentType":5126,
			"count":828,
			"max":[
				0.6570924520492554,
				0.41508346796035767,
				0.4146740138530731
			],
			"min":[
				-0.6570924520492554,
				-0.41508346796035767,
				-0.4146740138530731
			],
			"type":"VEC3"
		},
		{
			"bufferView":1,
			"componentType":5126,
			"count":828,
			"type":"VEC3"
		},
		{
			"bufferView":2,
			"componentType":5126,
			"count":828,
			"type":"VEC2"
		},
		{
			"bufferView":3,
			"componentType":5123,
			"count":1296,
			"type":"SCALAR"
		}
	],
	"bufferViews":[
		{
			"buffer":0,
			"byteLength":9936,
			"byteOffset":0,
			"target":34962
		},
		{
			"buffer":0,
			"byteLength":9936,
			"byteOffset":9936,
			"target":34962
		},
		{
			"buffer":0,
			"byteLength":6624,
			"byteOffset":19872,
			"target":34962
		},
		{
			"buffer":0,
			"byteLength":2592,
			"byteOffset":26496,
			"target":34963
		}
	],
	"buffers":[
		{
			"byteLength":29088,
			"uri":"Chest03.bin"
		}
	]
}
